<?xml version="1.0" standalone="no"?>
<!DOCTYPE svg PUBLIC "-//W3C//DTD SVG 20010904//EN"
 "http://www.w3.org/TR/2001/REC-SVG-20010904/DTD/svg10.dtd">
<svg version="1.0" xmlns="http://www.w3.org/2000/svg"
 width="1597.000000pt" height="1597.000000pt" viewBox="0 0 1597.000000 1597.000000"
 preserveAspectRatio="xMidYMid meet">
<metadata>
Created by potrace 1.11, written by Peter Selinger 2001-2013
</metadata>
<g transform="translate(0.000000,1597.000000) scale(0.100000,-0.100000)"
fill="#000000" stroke="none">
<path d="M4430 15054 c-391 -70 -719 -296 -908 -625 -74 -128 -139 -304 -156
-419 -3 -19 -8 -57 -12 -85 -9 -60 -8 -244 0 -300 33 -209 84 -358 179 -515
193 -319 525 -543 892 -604 90 -15 349 -16 425 -1 432 81 780 348 959 736 21
46 46 109 56 139 l17 55 1562 0 c1124 -1 1575 2 1611 10 127 29 221 122 250
249 38 167 -52 329 -218 390 -46 17 -140 18 -1622 18 l-1574 1 -10 26 c-5 14
-15 44 -21 66 -24 78 -146 314 -180 345 -3 3 -18 23 -34 44 -47 62 -177 188
-247 238 -149 105 -316 180 -492 220 -117 26 -366 32 -477 12z m402 -685 c177
-59 311 -188 383 -366 127 -313 -37 -685 -352 -803 -307 -115 -640 15 -783
305 -49 99 -69 195 -64 300 9 204 108 380 277 492 158 105 361 132 539 72z"/>
<path d="M11130 15055 c-285 -48 -508 -162 -706 -360 -112 -112 -171 -190
-237 -315 -262 -498 -171 -1107 225 -1508 165 -167 363 -281 593 -342 44 -11
98 -23 120 -25 22 -3 56 -7 75 -10 43 -6 225 -7 260 -1 14 3 45 7 70 10 25 3
61 10 80 16 43 12 37 20 163 -199 111 -195 312 -543 338 -586 10 -16 24 -41
32 -55 16 -31 272 -474 340 -590 54 -92 76 -130 115 -200 14 -25 52 -89 84
-143 32 -55 58 -100 58 -102 0 -2 14 -28 32 -57 44 -74 397 -685 421 -729 107
-198 376 -240 532 -85 71 71 106 166 98 265 -4 58 -26 114 -79 204 -20 34 -45
77 -56 96 -20 35 -569 986 -695 1204 -41 71 -84 146 -96 167 -12 20 -85 146
-162 279 -77 133 -148 257 -158 274 -10 18 -91 157 -179 311 -110 190 -158
283 -152 291 5 7 35 43 67 81 213 252 309 530 302 869 -7 346 -136 642 -389
890 -172 168 -377 279 -621 336 -112 26 -362 33 -475 14z m345 -671 c308 -75
515 -380 471 -694 -21 -145 -116 -308 -235 -403 -35 -28 -141 -84 -191 -100
-241 -80 -526 7 -680 208 -264 345 -115 836 297 975 111 38 222 43 338 14z"/>
<path d="M3375 12058 c-31 -10 -73 -30 -93 -43 -65 -44 -22 26 -554 -895 -135
-234 -254 -441 -265 -460 -16 -27 -239 -415 -453 -785 -251 -433 -370 -638
-373 -642 -3 -2 -33 3 -68 11 -117 27 -306 39 -399 25 -25 -4 -67 -9 -95 -13
-108 -13 -317 -86 -405 -141 -22 -14 -43 -25 -47 -25 -18 -1 -163 -115 -235
-186 -182 -178 -302 -395 -360 -649 -29 -127 -33 -363 -8 -500 65 -353 262
-650 566 -851 62 -41 119 -74 128 -74 8 0 17 -4 20 -8 6 -11 150 -65 226 -86
137 -37 333 -51 491 -33 152 16 368 91 503 173 221 135 412 349 510 569 9 22
21 49 26 60 17 38 55 165 66 220 20 99 27 353 12 445 -4 25 -10 61 -14 80 -10
61 -72 236 -110 311 -48 97 -110 190 -178 267 l-56 63 24 37 c12 20 128 219
256 442 128 223 306 531 395 685 89 154 173 300 187 325 14 25 90 155 168 290
78 135 151 260 161 278 39 68 100 173 229 397 166 287 171 299 172 383 1 81
-4 107 -31 160 -76 148 -245 221 -396 170z m-1945 -3468 c77 -19 155 -55 225
-105 165 -118 256 -299 256 -509 -1 -248 -158 -476 -391 -569 -85 -34 -108
-38 -211 -42 -404 -17 -721 370 -623 761 47 192 162 334 339 419 122 59 277
76 405 45z"/>
<path d="M7687 11694 c-1 -1 -45 -5 -97 -9 -52 -3 -106 -8 -120 -10 -14 -2
-50 -7 -80 -10 -87 -10 -177 -26 -295 -52 -60 -13 -118 -26 -128 -28 -50 -11
-225 -64 -317 -97 -99 -35 -110 -40 -255 -104 -283 -124 -527 -273 -785 -479
-236 -187 -491 -458 -677 -720 -140 -196 -281 -446 -362 -640 -18 -44 -39 -93
-46 -110 -61 -144 -157 -475 -189 -655 -23 -125 -25 -140 -32 -200 -3 -30 -8
-63 -9 -72 -9 -44 -18 -226 -18 -338 0 -153 19 -212 90 -285 69 -71 138 -100
243 -100 73 0 93 4 142 28 71 35 140 110 167 182 16 42 22 88 26 212 7 199 9
224 35 373 5 30 11 71 14 90 26 172 129 483 230 696 90 189 279 488 373 589
10 11 31 36 46 55 54 66 239 251 326 324 47 40 131 105 186 144 55 40 105 75
111 79 22 16 50 33 64 40 8 4 38 21 66 39 75 48 304 157 424 202 169 63 383
124 482 137 15 2 35 6 45 9 10 2 41 7 68 11 28 3 61 7 75 10 59 10 125 15 274
20 123 5 171 11 212 26 71 27 146 96 181 167 37 76 40 201 6 274 -43 93 -115
159 -208 189 -31 10 -259 21 -268 13z"/>
<path d="M7897 10454 c-1 -1 -38 -5 -82 -8 -69 -6 -170 -20 -295 -41 -61 -11
-152 -35 -264 -71 -577 -185 -1065 -582 -1378 -1119 -47 -79 -133 -257 -148
-305 -5 -14 -20 -56 -35 -95 -45 -122 -97 -338 -119 -495 -17 -126 -25 -359
-13 -406 22 -89 100 -182 187 -223 74 -35 201 -37 271 -5 86 40 165 129 189
215 6 18 12 87 15 154 3 66 6 129 9 140 2 11 7 47 12 80 4 33 8 62 9 65 41
177 79 289 144 426 211 441 587 774 1051 928 58 19 116 37 130 40 200 40 225
43 380 51 129 7 153 11 211 41 113 57 188 197 175 326 -14 126 -108 247 -221
283 -42 13 -217 27 -228 19z"/>
<path d="M7887 9274 c-1 -2 -29 -6 -62 -9 -33 -4 -62 -9 -65 -10 -3 -2 -24 -6
-47 -9 -22 -4 -83 -20 -134 -37 -333 -108 -619 -362 -767 -681 -52 -112 -82
-213 -107 -358 -11 -62 -13 -273 -3 -345 49 -368 240 -685 538 -897 125 -89
294 -165 440 -199 137 -33 355 -44 480 -25 407 62 744 293 948 650 43 74 105
220 117 276 2 8 11 45 19 81 22 91 26 135 26 278 0 267 -77 514 -231 737 -56
80 -186 218 -254 269 -22 17 -42 32 -45 35 -15 17 -154 98 -216 126 -71 32
-209 79 -262 89 -15 3 -36 7 -48 9 -71 14 -318 29 -327 20z m254 -689 c104
-27 195 -81 280 -166 148 -147 213 -353 172 -549 -20 -93 -32 -127 -78 -201
-48 -81 -85 -123 -153 -177 -102 -80 -216 -122 -352 -128 -273 -11 -515 150
-611 409 -57 152 -47 344 27 489 70 138 194 249 340 304 118 44 251 51 375 19z"/>
<path d="M14560 9269 c-195 -20 -402 -85 -528 -165 -29 -19 -55 -34 -58 -34
-2 0 -10 -4 -17 -10 -7 -5 -48 -39 -92 -74 -262 -208 -438 -526 -472 -851 -38
-372 69 -721 304 -992 l54 -63 -41 -77 c-23 -43 -48 -85 -56 -94 -8 -8 -14
-18 -14 -22 0 -4 -22 -44 -49 -89 -43 -74 -246 -426 -298 -518 -11 -19 -59
-102 -107 -184 -47 -82 -86 -151 -86 -153 0 -2 -12 -22 -27 -46 -15 -23 -32
-51 -38 -62 -24 -44 -66 -117 -152 -265 -207 -356 -578 -998 -601 -1040 -14
-25 -35 -61 -47 -80 -56 -89 -69 -131 -69 -225 -1 -106 21 -161 91 -233 145
-147 397 -123 511 48 17 25 83 137 147 250 65 113 126 217 136 232 11 15 19
29 19 32 0 3 45 82 100 177 55 94 100 173 100 175 0 2 16 28 35 58 19 30 35
57 35 60 0 2 27 50 60 106 33 56 60 105 60 110 0 5 3 10 8 12 4 2 14 17 23 33
8 17 59 104 111 195 53 91 105 181 116 200 28 50 80 140 147 255 32 55 99 172
150 260 334 579 314 547 333 541 48 -13 60 -16 92 -21 19 -3 49 -8 65 -11 63
-12 264 -10 355 3 181 26 378 102 541 209 97 64 263 229 333 331 95 137 183
346 211 498 26 143 24 385 -5 495 -5 19 -11 46 -14 60 -19 102 -101 285 -182
407 -57 86 -205 244 -279 299 -275 202 -593 295 -905 263z m250 -678 c179 -40
344 -170 421 -331 48 -101 61 -150 64 -258 7 -228 -108 -437 -307 -555 -166
-98 -396 -111 -565 -32 -231 109 -368 320 -366 565 1 132 9 172 60 274 38 77
54 100 119 168 142 149 368 216 574 169z"/>
<path d="M10033 8305 c-93 -26 -168 -88 -213 -174 -25 -50 -29 -74 -35 -210
-3 -62 -7 -126 -10 -141 -3 -14 -7 -42 -9 -61 -55 -417 -300 -847 -642 -1126
-129 -105 -342 -230 -474 -278 -150 -54 -280 -89 -375 -100 -27 -4 -57 -8 -65
-11 -9 -2 -72 -6 -140 -9 -183 -8 -248 -31 -324 -115 -163 -181 -77 -476 159
-543 104 -29 485 4 684 59 369 102 614 220 888 426 286 215 508 475 691 808
91 168 201 467 227 620 3 19 10 51 15 70 36 144 55 469 31 555 -24 91 -109
184 -200 219 -62 24 -146 28 -208 11z"/>
<path d="M11303 8182 c-85 -30 -159 -95 -194 -170 -27 -57 -30 -71 -34 -177
-10 -235 -15 -285 -46 -470 -86 -510 -314 -995 -663 -1405 -60 -70 -283 -287
-356 -346 -306 -249 -645 -430 -1008 -540 -121 -36 -363 -88 -467 -100 -33 -3
-69 -8 -80 -10 -11 -2 -87 -6 -170 -9 -188 -7 -208 -10 -270 -39 -168 -77
-238 -283 -152 -452 42 -82 114 -141 205 -168 40 -11 87 -14 202 -11 139 4
173 6 305 21 610 67 1242 320 1734 692 191 145 397 336 536 496 33 38 67 76
75 85 52 55 320 436 320 455 0 2 18 33 39 69 36 59 122 232 166 332 9 22 21
49 26 60 5 11 20 52 34 90 14 39 30 79 35 90 19 41 94 306 115 401 24 114 45
230 50 279 4 33 9 69 11 79 10 56 19 209 19 356 0 161 -1 166 -28 222 -70 144
-256 221 -404 170z"/>
<path d="M2363 6269 c-76 -24 -158 -98 -193 -174 -34 -72 -34 -210 -1 -275 23
-44 76 -135 430 -748 100 -172 181 -315 181 -318 0 -3 8 -17 19 -32 10 -15 65
-108 122 -207 56 -99 142 -248 191 -332 48 -83 96 -167 106 -185 11 -18 113
-195 228 -393 114 -198 225 -391 246 -429 l38 -69 -42 -46 c-62 -68 -80 -91
-125 -157 -44 -64 -137 -244 -127 -244 4 0 2 -6 -3 -12 -24 -30 -66 -205 -80
-323 -10 -98 -7 -267 8 -335 4 -19 10 -49 12 -66 9 -58 57 -203 96 -286 184
-392 557 -668 986 -728 44 -6 136 -10 205 -9 463 5 891 264 1108 669 38 70
100 216 107 250 2 8 10 42 18 75 46 179 43 420 -7 617 -114 446 -473 808 -917
923 -188 49 -445 55 -599 14 -19 -5 -40 -9 -46 -9 -9 0 -167 261 -247 409 -11
19 -37 64 -58 99 -21 35 -39 65 -39 67 0 3 -267 467 -325 565 -13 22 -165 285
-190 328 -40 69 -129 224 -255 442 -518 898 -479 835 -544 879 -88 60 -197 75
-303 40z m2417 -3475 c295 -74 486 -328 475 -632 -8 -235 -143 -438 -357 -537
-242 -111 -508 -64 -699 125 -186 184 -236 458 -127 700 79 173 269 320 458
353 52 9 197 4 250 -9z"/>
<path d="M11114 3461 c-187 -33 -366 -107 -522 -213 -92 -64 -239 -207 -310
-303 -59 -80 -141 -239 -176 -341 l-23 -69 -1574 -1 c-1144 -1 -1585 -4 -1615
-13 -62 -17 -146 -77 -182 -129 -126 -185 -46 -434 163 -508 47 -16 147 -17
1625 -18 l1575 -1 21 -60 c33 -95 34 -96 67 -170 113 -246 331 -471 577 -595
91 -45 251 -104 315 -115 17 -2 53 -9 80 -14 63 -12 327 -13 380 -1 22 5 54
11 70 13 207 32 470 171 643 340 189 185 331 447 367 677 3 19 10 60 15 90 9
60 7 341 -4 358 -3 6 -9 30 -12 54 -9 65 -68 236 -113 325 -67 134 -131 222
-241 333 -86 85 -111 106 -195 162 -157 103 -341 175 -523 204 -94 15 -309 12
-408 -5z m405 -682 c194 -64 337 -210 407 -414 23 -68 28 -251 8 -325 -121
-457 -661 -625 -1017 -318 -95 82 -186 244 -203 361 -19 135 11 316 68 399 10
14 18 30 18 35 0 15 81 107 133 151 65 54 177 109 259 127 101 22 231 16 327
-16z"/>
</g>
</svg>
